<svg width="512" height="512" viewBox="0 0 512 512" fill="none" xmlns="http://www.w3.org/2000/svg">
<path d="M56.481 105.32C55.515 77.58 77.128 52 106.342 52H405.695C434.909 52 456.522 77.58 455.556 105.32C454.628 131.967 455.833 166.485 464.52 194.63C473.235 222.862 487.931 240.707 512 243V269C487.931 271.293 473.235 289.138 464.52 317.37C455.833 345.515 454.628 380.033 455.556 406.681C456.522 434.42 434.909 460 405.695 460H106.342C77.128 460 55.515 434.42 56.482 406.681C57.409 380.033 56.204 345.515 47.516 317.37C38.802 289.138 24.07 271.293 0 269V243C24.069 240.707 38.802 222.862 47.516 194.63C56.204 166.485 57.409 131.967 56.481 105.32V105.32Z" fill="url(#paint0_linear)"/>
<g filter="url(#filter0_d)">
<path d="M267.103 364.457C314.4 364.457 342.901 341.299 342.901 303.102C342.901 274.229 322.565 253.326 292.369 250.017V248.814C314.554 245.205 331.963 224.603 331.963 201.595C331.963 168.812 306.081 147.457 266.641 147.457H177.901V364.457H267.103ZM212.411 174.977H258.322C283.28 174.977 297.453 186.105 297.453 206.256C297.453 227.761 280.969 239.791 251.081 239.791H212.411V174.977V174.977ZM212.411 336.938V265.507H258.013C290.674 265.507 307.621 277.537 307.621 300.997C307.621 324.456 291.137 336.938 260.016 336.938H212.411V336.938Z" fill="url(#paint1_linear)"/>
<path d="M267.103 364.457C314.4 364.457 342.901 341.299 342.901 303.102C342.901 274.229 322.565 253.326 292.369 250.017V248.814C314.554 245.205 331.963 224.603 331.963 201.595C331.963 168.812 306.081 147.457 266.641 147.457H177.901V364.457H267.103ZM212.411 174.977H258.322C283.28 174.977 297.453 186.105 297.453 206.256C297.453 227.761 280.969 239.791 251.081 239.791H212.411V174.977V174.977ZM212.411 336.938V265.507H258.013C290.674 265.507 307.621 277.537 307.621 300.997C307.621 324.456 291.137 336.938 260.016 336.938H212.411V336.938Z" stroke="white"/>
</g>
<defs>
<filter id="filter0_d" x="161.401" y="134.957" width="198" height="250" filterUnits="userSpaceOnUse" color-interpolation-filters="sRGB">
<feFlood flood-opacity="0" result="BackgroundImageFix"/>
<feColorMatrix in="SourceAlpha" type="matrix" values="0 0 0 0 0 0 0 0 0 0 0 0 0 0 0 0 0 0 127 0" result="hardAlpha"/>
<feOffset dy="4"/>
<feGaussianBlur stdDeviation="8"/>
<feColorMatrix type="matrix" values="0 0 0 0 0 0 0 0 0 0 0 0 0 0 0 0 0 0 0.15 0"/>
<feBlend mode="normal" in2="BackgroundImageFix" result="effect1_dropShadow"/>
<feBlend mode="normal" in="SourceGraphic" in2="effect1_dropShadow" result="shape"/>
</filter>
<linearGradient id="paint0_linear" x1="76.079" y1="62.798" x2="523.48" y2="417.945" gradientUnits="userSpaceOnUse">
<stop stop-color="#9013FE"/>
<stop offset="1" stop-color="#6610F2"/>
</linearGradient>
<linearGradient id="paint1_linear" x1="193.508" y1="161.74" x2="293.514" y2="330.872" gradientUnits="userSpaceOnUse">
<stop stop-color="white"/>
<stop offset="1" stop-color="#F1E5FC"/>
</linearGradient>
</defs>
</svg>
