<svg width="512" height="512" viewBox="0 0 512 512" fill="none" xmlns="http://www.w3.org/2000/svg">
<g clip-path="url(#clip0)">
<g clip-path="url(#clip1)">
<path d="M26.208 608.559C15.8 608.559 12.774 602.141 12.774 592.525C12.774 589.32 13.154 585.704 13.622 581.896C15.902 565.266 21.468 555.751 34.902 555.751C43.988 555.751 48.418 560.055 48.418 567.871V571.682H57.432C57.532 571.682 57.532 568.174 57.532 567.376C57.532 555.955 51.002 545.122 34.916 545.122C13.058 545.122 4.07 557.698 0.758 582.351C0.284 585.66 0 588.748 0 592.044C0 606.574 5.398 619.792 24.698 619.792C39.362 619.792 48.072 612.219 53.178 602.899L44.566 596.757C38.986 606.079 32.926 608.559 26.208 608.559V608.559ZM85.348 562.663C67.84 562.663 60.276 572.178 57.722 591.114C57.4221 593.306 57.2618 595.516 57.242 597.731C57.242 609.953 62.636 619.679 77.582 619.679C95.09 619.679 102.756 609.756 105.31 591.114C105.594 588.712 105.784 586.507 105.784 584.304C105.788 571.881 100.208 562.663 85.348 562.663V562.663ZM92.634 591.12C90.74 604.852 86.676 609.061 79.006 609.061C72.86 609.061 69.834 606.354 69.834 598.237C69.834 596.231 70.026 593.829 70.402 591.12C72.296 577.494 76.08 573.285 83.838 573.285C90.084 573.285 93.202 575.99 93.202 584.207C93.202 586.21 93.01 588.517 92.634 591.12ZM149.794 546.118L146.864 564.514C146.676 566.113 146.772 565.582 147.344 567.086C144.6 564.883 139.676 563.425 136.364 563.425C120.656 563.425 111.86 570.955 109.024 591.999C108.693 594.221 108.534 596.467 108.55 598.716C108.55 614.054 117.064 619.77 128.51 619.77C133.342 619.77 138.07 619.876 141.756 616.574L142.698 622.808H151.784L162.38 546.118H149.794V546.118ZM140.806 606.151C136.552 608.849 132.392 609.459 129.838 609.459C122.93 609.459 121.038 605.649 121.038 599.54C121.038 597.233 121.322 594.535 121.704 591.62C123.876 575.689 128.704 572.879 134.95 572.879C139.014 572.879 142.134 573.584 145.074 575.291L140.806 606.151V606.151ZM190.012 562.663C172.692 562.663 164.562 571.375 161.814 591.114C161.526 593.522 161.336 595.829 161.336 598.032C161.336 611.56 167.868 619.679 182.244 619.679C193.41 619.679 201.744 614.765 206.188 605.746L196.63 601.637C193.89 606.043 190.2 609.05 183.67 609.05C176.67 609.05 173.83 607.055 173.83 600.44C173.83 599.135 173.926 597.24 174.116 597.24H208.268C208.748 592.126 209.308 588.513 209.308 585.516C209.308 575.501 205.716 562.661 190.012 562.661V562.663ZM196.538 587.02H175.722C177.808 581.906 181.302 573.993 188.496 573.993C194.076 573.993 196.824 577.448 196.824 583.359C196.818 584.361 196.732 587.02 196.538 587.02V587.02ZM245.72 561.455L246.854 551.231H220.168L219.038 561.455H226.038L218.474 612.581H211.464L210.336 622.808H237.016L238.156 612.581H231.15L238.716 561.455H245.72ZM299.94 576.793L303.35 566.569H294.172L287.554 568.015C283.862 565.516 278.846 563.639 274.12 563.639C260.584 563.639 249.046 570.561 249.046 586.297C249.046 590.711 250.558 594.274 252.352 596.683C249.52 598.282 247.058 600.961 247.058 604.575C247.058 606.176 247.622 607.816 248.762 609.315C243.08 612.929 239.59 618.917 239.59 625.926C239.59 639.461 252.928 642.348 263.146 642.348C276.012 642.348 291.344 639.234 291.344 621.897C291.344 615.987 287.844 611.37 277.72 609.366L259.46 605.752C257.38 605.348 256.906 604.647 256.906 603.645C256.906 602.141 257.766 601.345 259.178 601.345L260.41 601.544C262.87 602.143 265.71 602.448 268.64 602.448C281.796 602.448 293.526 596.433 293.526 580.801C293.526 578.593 293.15 577.1 292.204 574.692C293.81 575.497 295.896 576.799 296.74 576.799H299.94V576.793V576.793ZM273.926 618.273C277.518 618.978 278.746 620.378 278.746 622.884C278.746 631.003 270.514 632.005 264.556 632.005C255.472 632.005 252.068 629.705 252.068 624.587C252.068 620.075 253.294 617.976 256.138 614.765L273.926 618.273ZM270.04 592.025C264.552 592.025 261.524 589.924 261.524 584.908C261.524 577.494 265.594 573.184 272.69 573.184C278.368 573.184 281.114 575.689 281.114 580.593C281.114 588.011 277.136 592.025 270.04 592.025V592.025ZM333.554 562.663C328.254 562.663 323.528 565.416 317.658 570.322L316.808 566.569H306.396L299.112 622.806H311.696L317.186 580.159C320.878 577.755 325.416 574.264 329.296 574.264C334.024 574.264 335.732 576.681 335.732 581.288C335.732 582.391 335.632 585.66 335.442 586.861L330.812 622.806H343.398L348.028 586.568C348.22 584.874 348.408 582.08 348.408 580.481C348.414 570.949 344.15 562.663 333.554 562.663V562.663ZM372.314 608.718L372.41 607.341L377.894 566.569H356.982L355.664 576.793H364.836C364.078 576.793 363.606 577.689 363.514 578.496L359.728 605.651C359.54 606.958 359.448 609.677 359.448 610.773C359.448 617.786 363.04 622.808 370.416 622.808H376.852L378.272 612.581H374.206C372.782 612.581 372.314 609.919 372.314 608.718V608.718ZM380.448 546.118H368.148C367.39 546.118 367.39 543.167 367.298 544.169L365.59 558.577C365.492 559.484 365.492 561.458 366.25 561.458H378.556C379.314 561.458 379.314 557.954 379.406 557.043L381.114 545.923C381.21 544.921 381.21 546.118 380.448 546.118ZM406.11 609.059C402.992 609.059 401.476 607.655 401.476 604.653L401.572 604.448L405.546 576.793H419.926L424.276 566.569H406.868L409.798 544.068L396.558 548.552L394.188 566.569H386.526L385.204 576.793H394.096C393.246 581.906 392.392 578.589 392.3 579.595L388.892 603.844C388.704 604.95 388.704 605.75 388.704 606.748C388.704 616.269 395.326 619.832 403.282 619.832C410.658 619.832 416.62 617.551 421.26 613.435L415.39 605.788C412.45 607.688 410.466 609.059 406.11 609.059V609.059ZM452.284 562.663C434.97 562.663 426.834 571.375 424.088 591.114C423.804 593.522 423.614 595.829 423.614 598.032C423.614 611.56 430.142 619.679 444.522 619.679C455.688 619.679 464.022 614.765 468.462 605.746L458.908 601.637C456.168 606.043 452.474 609.05 445.942 609.05C438.946 609.05 436.102 607.055 436.102 600.44C436.102 599.135 436.204 597.24 436.394 597.24H470.548C471.02 592.126 471.588 588.513 471.588 585.516C471.588 575.501 467.994 562.661 452.284 562.661V562.663ZM458.816 587.02H438C440.08 581.906 443.576 573.993 450.774 573.993C456.354 573.993 459.102 577.448 459.102 583.359C459.096 584.361 459.004 587.02 458.816 587.02V587.02ZM506.41 562.661C501.868 562.661 497.61 565.419 493.35 569.718L492.594 566.569H482.19L474.902 622.806H487.582L493.162 579.256C496.476 577.157 500.26 575.363 503.856 575.363C506.13 575.363 508.302 574.98 510.382 575.279L512 563.661C510.098 563.26 508.206 562.663 506.41 562.663V562.661ZM185.08 505.837C156.44 492.726 129.64 459.403 129.576 425.307C129.498 388.133 151.742 356.573 179.408 335.832C176.082 349.14 174.268 361.313 182.508 373.217C190.168 384.284 203.584 389.662 216.252 386.744C245.852 379.881 247.21 345.418 229.662 325.34C212.312 305.457 195.528 282.998 202.132 254.164C205.438 239.71 213.818 226.17 224.434 216.493C216.274 239.203 239.462 261.601 254.74 272.757C281.242 292.113 310.32 306.741 334.688 329.431C360.32 353.277 379.248 385.519 375.426 422.915C371.284 463.448 340.872 491.639 306.76 505.871C378.844 489.021 453.326 429.77 454.852 345.103C456.116 275.447 410.998 221.841 355.108 191.151L352.188 189.463C353.722 193.405 354.224 196.758 354.166 199.759C354.666 197.546 355.006 195.271 355.102 192.924C355.088 195.712 354.744 198.487 354.078 201.185L354.166 199.759C353.336 203.457 351.938 206.986 350.028 210.204L350.848 209.27C339.698 228.856 309.512 233.109 294.6 212.828C270.628 180.204 295.102 145.03 298.526 110.483C302.812 67.1858 277.174 25.1531 245.386 0C262.894 29.9952 239.828 69.6789 221.374 91.8644C203.48 113.37 181.718 131.326 161.964 150.866C140.744 171.852 120.344 193.96 102.902 218.592C68.018 267.894 46.662 329.901 62.356 391.408C78.04 452.872 128.312 491.999 185.082 505.835L185.08 505.837Z" fill="#EE4323"/>
</g>
</g>
<defs>
<clipPath id="clip0">
<rect width="512" height="512" fill="white"/>
</clipPath>
<clipPath id="clip1">
<rect width="512" height="644" fill="white"/>
</clipPath>
</defs>
</svg>
