<svg width="512" height="512" viewBox="0 0 512 512" fill="none" xmlns="http://www.w3.org/2000/svg">
<path d="M164.516 512C211.703 512 249.999 473.771 249.999 426.667V341.333H164.516C117.33 341.333 79.0333 379.563 79.0333 426.667C79.0333 473.771 117.33 512 164.516 512Z" fill="#0ACF83"/>
<path d="M79.0333 256C79.0333 208.896 117.33 170.667 164.516 170.667H249.999V341.333H164.516C117.33 341.333 79.0333 303.104 79.0333 256Z" fill="#A259FF"/>
<path d="M79.0333 85.3334C79.0333 38.2294 117.33 6.10352e-05 164.516 6.10352e-05H249.999V170.667H164.516C117.33 170.667 79.0333 132.437 79.0333 85.3334Z" fill="#F24E1E"/>
<path d="M250 6.10352e-05H335.483C382.67 6.10352e-05 420.966 38.2294 420.966 85.3334C420.966 132.437 382.67 170.667 335.483 170.667H250V6.10352e-05Z" fill="#FF7262"/>
<path d="M420.966 256C420.966 303.104 382.67 341.333 335.483 341.333C288.296 341.333 250 303.104 250 256C250 208.896 288.296 170.667 335.483 170.667C382.67 170.667 420.966 208.896 420.966 256Z" fill="#1ABCFE"/>
</svg>
