<svg width="512" height="512" viewBox="0 0 512 512" fill="none" xmlns="http://www.w3.org/2000/svg">
<g clip-path="url(#clip0)">
<rect x="256" y="71" width="189" height="359" fill="white"/>
<path d="M47.5046 460.212L-0.0205078 0.0263672L511.973 0.202008L464.847 459.86L255.577 511.851L47.5046 460.212ZM426.308 435.095L466.045 40.9512H256.375L257.973 475.668L426.308 435.095V435.095ZM236.806 98.7379H185.887L185.287 334.627L86.4432 310.915L86.6429 364.837L236.806 400.493V98.7379V98.7379Z" fill="#D4B830"/>
<path opacity="0.986" d="M86.643 364.837L86.4433 310.915C86.4433 310.915 149.544 326.547 185.288 334.627L185.887 98.9135H236.806V400.493L86.643 364.837V364.837Z" fill="#EBEBEB" fill-opacity="0.9216"/>
<path d="M256.375 40.7756H466.045L426.308 434.919L256.375 475.492V40.7756ZM415.525 368.877L429.303 221.512L327.463 231.524V152.836L436.092 152.485L440.485 98.7378L276.544 99.4404L278.74 295.107L377.784 280.177L376.386 323.737L276.544 347.097L277.542 400.493L415.525 368.877Z" fill="#FDD83C"/>
</g>
<defs>
<clipPath id="clip0">
<rect width="512" height="512" fill="white"/>
</clipPath>
</defs>
</svg>
