<svg width="512" height="512" viewBox="0 0 512 512" fill="none" xmlns="http://www.w3.org/2000/svg">
<path d="M256 128C112.448 128 0 184.229 0 256C0 327.771 112.448 384 256 384C399.552 384 512 327.771 512 256C512 184.229 399.552 128 256 128Z" fill="#303C42"/>
<path d="M256 362.667C194.665 362.667 138.064 351.239 95.741 332.994L104.333 298.667H141.75C169.958 298.667 194.438 279.552 201.292 252.177L203.157 244.667C206.355 231.917 203.542 218.657 195.459 208.302C187.365 197.938 175.198 192 162.052 192H117.333C112.437 192 108.177 195.333 106.989 200.083L76.109 323.604C42.083 305.051 21.333 281.396 21.333 256C21.333 198.177 128.802 149.333 256 149.333C383.198 149.333 490.667 198.177 490.667 256C490.667 313.823 383.198 362.667 256 362.667Z" fill="#82B1FF"/>
<path opacity="0.2" d="M32 266.667C32 208.844 139.469 160 266.667 160C355.743 160 434.986 183.992 474.578 218.208C440.173 178.411 354.065 149.333 256 149.333C128.802 149.333 21.333 198.177 21.333 256C21.333 273.022 30.824 289.217 47.217 303.663C37.439 292.076 32 279.602 32 266.667Z" fill="white"/>
<path d="M109.667 277.333L125.667 213.333H162.052C168.573 213.333 174.625 216.281 178.635 221.427C182.656 226.573 184.052 233.156 182.458 239.5L180.593 247.01C176.124 264.864 160.155 277.333 141.749 277.333H109.667Z" fill="#82B1FF"/>
<path d="M109.667 277.333L125.667 213.333H162.052C168.573 213.333 174.625 216.281 178.635 221.427C182.656 226.573 184.052 233.156 182.458 239.5L180.593 247.01C176.124 264.864 160.155 277.333 141.749 277.333H109.667Z" fill="#82B1FF"/>
<path d="M407.385 192H362.666C357.77 192 353.51 195.333 352.322 200.083L331.041 285.177C330.999 285.333 330.968 285.479 330.926 285.625L320.322 328.083C318.884 333.791 322.364 339.583 328.082 341.01C328.947 341.229 329.822 341.333 330.676 341.333C335.457 341.333 339.801 338.104 341.009 333.25L349.665 298.667H387.082C415.29 298.667 439.77 279.552 446.624 252.177L448.489 244.667C451.687 231.917 448.874 218.657 440.791 208.302C432.698 197.938 420.531 192 407.385 192ZM427.792 239.5L425.927 247.01C421.458 264.864 405.489 277.333 387.083 277.333H355L371 213.333H407.385C413.906 213.333 419.958 216.281 423.968 221.427C427.99 226.573 429.385 233.156 427.792 239.5Z" fill="#303C42"/>
<path d="M313.5 205.021C306.76 196.75 296.781 192 286.104 192H252.29L255.823 172.573C256.886 166.781 253.042 161.229 247.24 160.177C241.48 159.114 235.886 162.958 234.844 168.76L213.51 286.094C212.447 291.886 216.291 297.438 222.093 298.49C222.739 298.615 223.374 298.667 224.01 298.667C229.073 298.667 233.562 295.063 234.489 289.907L248.411 213.334H286.104C290.333 213.334 294.281 215.209 296.948 218.49C299.615 221.771 300.656 226.021 299.792 230.167L288.219 285.834C287.021 291.594 290.729 297.24 296.5 298.449C297.229 298.595 297.958 298.668 298.677 298.668C303.625 298.668 308.062 295.21 309.115 290.168L320.688 234.501C322.854 224.052 320.229 213.302 313.5 205.021Z" fill="#303C42"/>
<path d="M256 128C112.448 128 0 184.229 0 256C0 327.771 112.448 384 256 384C399.552 384 512 327.771 512 256C512 184.229 399.552 128 256 128Z" fill="url(#paint0_linear)"/>
<defs>
<linearGradient id="paint0_linear" x1="39.8314" y1="155.191" x2="472.172" y2="356.853" gradientUnits="userSpaceOnUse">
<stop stop-color="white" stop-opacity="0.2"/>
<stop offset="1" stop-color="white" stop-opacity="0"/>
</linearGradient>
</defs>
</svg>
